<svg width="24" height="16" viewBox="0 0 24 16" fill="none" xmlns="http://www.w3.org/2000/svg">
<path d="M20.7046 2.22141C18.1079 0.358126 15.6883 0.280664 15.226 0.270996L14.931 0.551016C18.2456 1.47791 19.8489 2.92623 19.8489 2.92623C17.0037 1.55215 14.3226 1.06893 11.9998 1.03986C9.6771 1.06916 6.9959 1.55215 4.15082 2.92623C4.15082 2.92623 5.75407 1.47791 9.06878 0.551016L8.77364 0.270996C8.31139 0.280664 5.89176 0.357891 3.29512 2.22141C3.29512 2.22141 0.393555 7.08774 0.393555 13.0644C0.491875 12.9486 2.1935 15.6328 6.5803 15.7293C6.5803 15.7293 7.31799 14.9086 7.84909 14.1844C5.29176 13.4603 4.32789 12.012 4.32789 12.012C6.98653 13.656 9.46979 14.2885 11.9998 14.2063C14.5298 14.2883 17.0131 13.656 19.6717 12.012C19.6717 12.012 18.7079 13.4603 16.1502 14.1844C16.6814 14.9086 17.4191 15.7293 17.4191 15.7293C21.8058 15.6328 23.5075 12.9486 23.6058 13.0644C23.6061 7.08774 20.7046 2.22141 20.7046 2.22141ZM8.42917 11.1913C7.30786 11.1913 6.40299 10.2643 6.40299 9.12498C6.40299 7.98563 7.30786 7.05873 8.42917 7.05873V7.0684C9.54063 7.0684 10.4553 7.99536 10.4553 9.13465C10.4556 10.2643 9.55059 11.1913 8.4294 11.1913H8.42917ZM15.57 11.1913C14.4487 11.1913 13.5438 10.2643 13.5438 9.13465C13.5438 7.99536 14.4585 7.0684 15.57 7.0684V7.05873C16.6913 7.05873 17.5962 7.98569 17.5962 9.12498C17.5962 10.2643 16.6915 11.1913 15.5702 11.1913H15.57Z" fill="white"/>
</svg>
